<svg xmlns="http://www.w3.org/2000/svg"
 xmlns:xlink="http://www.w3.org/1999/xlink"
 width="66px" height="57px"  viewBox="0 0 66 57">
<path fill-rule="evenodd"  fill="#ffc222"
 d="M61.802307,49.59076 C61.802307,49.59076 60.64563,49.59076 60.64563,49.59076 C60.64563,49.59076 60.64563,48.43164 60.64563,48.43164 C60.64563,46.66461 59.211243,45.227295 57.44806,45.227295 C57.44806,45.227295 46.56256,45.227295 46.56256,45.227295 C44.799316,45.227295 43.364807,46.66461 43.364807,48.43164 C43.364807,48.43164 43.364807,49.59076 43.364807,49.59076 C43.364807,49.59076 42.208313,49.59076 42.208313,49.59076 C40.44507,49.59076 39.01068,51.02832 39.01068,52.795166 C39.01068,52.795166 39.01068,54.976807 39.01068,54.976807 C39.01068,55.541748 39.46753,55.999756 40.03119,55.999756 C40.03119,55.999756 63.97931,55.999756 63.97931,55.999756 C64.54303,55.999756 64.99988,55.541748 64.99988,54.976807 C64.99988,54.976807 64.99988,52.795166 64.99988,52.795166 C64.99988,51.02832 63.56549,49.59076 61.802307,49.59076 ZM45.405884,48.43164 C45.405884,47.792664 45.924744,47.272766 46.56256,47.272766 C46.56256,47.272766 57.44806,47.272766 57.44806,47.272766 C58.085815,47.272766 58.604614,47.792664 58.604614,48.43164 C58.604614,48.43164 58.604614,49.59076 58.604614,49.59076 C58.604614,49.59076 45.405884,49.59076 45.405884,49.59076 C45.405884,49.59076 45.405884,48.43164 45.405884,48.43164 ZM62.958862,53.954285 C62.958862,53.954285 41.051758,53.954285 41.051758,53.954285 C41.051758,53.954285 41.051758,52.795166 41.051758,52.795166 C41.051758,52.15619 41.570496,51.63623 42.208313,51.63623 C42.208313,51.63623 61.802307,51.63623 61.802307,51.63623 C62.440063,51.63623 62.958862,52.15619 62.958862,52.795166 C62.958862,52.795166 62.958862,53.954285 62.958862,53.954285 ZM41.05188,27.572937 C41.05188,27.572937 41.003662,27.621338 41.003662,27.621338 C39.756836,28.87085 39.756836,30.903625 41.003662,32.152954 C41.607605,32.757996 42.410645,33.09131 43.26471,33.09131 C44.118896,33.09131 44.921814,32.757996 45.525818,32.152954 C45.525818,32.152954 51.683533,25.982239 51.683533,25.982239 C52.287537,25.376953 52.62024,24.572327 52.62024,23.716492 C52.62024,22.860596 52.287537,22.055542 51.683533,21.4505 C51.079773,20.845398 50.27661,20.512085 49.422546,20.512085 C48.56848,20.512085 47.76544,20.845398 47.1615,21.4505 C47.1615,21.4505 47.113464,21.498901 47.113464,21.498901 C47.113464,21.498901 44.746338,19.126587 44.746338,19.126587 C44.950073,18.411926 44.77246,17.610352 44.211914,17.048462 C44.211914,17.048462 37.60321,10.425598 37.60321,10.425598 C37.04254,9.863892 36.242493,9.685974 35.52942,9.89032 C35.52942,9.89032 33.16217,7.5180054 33.16217,7.5180054 C33.16217,7.5180054 33.210144,7.4700317 33.210144,7.4700317 C33.814026,6.864502 34.14673,6.0598755 34.14673,5.2040405 C34.14673,4.3481445 33.814026,3.543335 33.210144,2.9380493 C32.606323,2.3329468 31.803223,1.9996338 30.949158,1.9996338 C30.095093,1.9996338 29.291931,2.3329468 28.687988,2.9380493 C28.687988,2.9380493 22.530396,9.108704 22.530396,9.108704 C21.926514,9.713989 21.593811,10.519043 21.593811,11.374695 C21.593811,12.230591 21.926514,13.0355835 22.530396,13.640503 C23.153748,14.265564 23.972595,14.577637 24.791382,14.577637 C25.610352,14.577637 26.4292,14.26532 27.052551,13.640503 C27.052551,13.640503 27.100708,13.592468 27.100708,13.592468 C27.100708,13.592468 29.467102,15.963989 29.467102,15.963989 C29.413574,16.151428 29.384644,16.347717 29.384644,16.548279 C29.384644,17.11322 29.604004,17.643616 30.00238,18.042908 C30.00238,18.042908 30.275879,18.316711 30.275879,18.316711 C30.275879,18.316711 28.160095,20.437256 28.160095,20.437256 C27.484985,21.113708 27.17865,22.019836 27.234741,22.907227 C27.234741,22.907227 2.9365234,47.256836 2.9365234,47.256836 C2.3326416,47.861877 1.999939,48.666504 1.999939,49.522583 C1.999939,50.378845 2.3326416,51.18329 2.9365234,51.788574 C3.5402832,52.393433 4.3433228,52.72699 5.19751,52.72699 C6.0515747,52.72699 6.8547363,52.393433 7.458557,51.788574 C7.458557,51.788574 31.756714,27.438965 31.756714,27.438965 C31.824585,27.44342 31.892456,27.448425 31.96045,27.448425 C32.779175,27.448425 33.598083,27.136108 34.221436,26.511475 C34.221436,26.511475 36.33734,24.391357 36.33734,24.391357 C36.33734,24.391357 36.61078,24.665344 36.61078,24.665344 C37.009216,25.064453 37.53888,25.284546 38.102173,25.284546 C38.30243,25.284546 38.497986,25.255493 38.685364,25.201843 C38.685364,25.201843 41.05188,27.572937 41.05188,27.572937 ZM49.422546,22.557922 C49.71881,22.557922 50.015015,22.670715 50.240417,22.896729 C50.4588,23.1156 50.579285,23.406555 50.579285,23.716492 C50.579285,24.02594 50.459045,24.316895 50.240417,24.535828 C50.240417,24.535828 44.082703,30.706482 44.082703,30.706482 C43.63159,31.15863 42.89789,31.15863 42.44702,30.706482 C41.99597,30.254944 41.99597,29.519348 42.44702,29.06781 C42.44702,29.06781 48.60486,22.896729 48.60486,22.896729 C48.8302,22.670715 49.12622,22.557922 49.422546,22.557922 ZM42.49518,26.126892 C42.49518,26.126892 40.315063,23.94226 40.315063,23.94226 C40.315063,23.94226 43.490356,20.760681 43.490356,20.760681 C43.490356,20.760681 45.670227,22.944946 45.670227,22.944946 C45.670227,22.944946 42.49518,26.126892 42.49518,26.126892 ZM23.973633,12.194458 C23.522705,11.74231 23.522705,11.006897 23.973633,10.555115 C23.973633,10.555115 30.131348,4.3842773 30.131348,4.3842773 C30.34967,4.165344 30.640259,4.0446777 30.949219,4.0446777 C31.25824,4.0446777 31.548706,4.165344 31.767029,4.3842773 C32.217957,4.836426 32.217957,5.5716553 31.767029,6.0233765 C31.767029,6.0233765 25.609314,12.194458 25.609314,12.194458 C25.158325,12.645996 24.424622,12.645996 23.973633,12.194458 ZM31.718994,8.96405 C31.718994,8.96405 33.898987,11.148743 33.898987,11.148743 C33.898987,11.148743 30.723816,14.330688 30.723816,14.330688 C30.723816,14.330688 28.543823,12.146057 28.543823,12.146057 C28.543823,12.146057 31.718994,8.96405 31.718994,8.96405 ZM6.01532,50.342163 C5.796875,50.561035 5.506531,50.681946 5.19751,50.681946 C4.88855,50.681946 4.5980835,50.561035 4.3797607,50.342163 C4.161377,50.12323 4.0408936,49.832092 4.0408936,49.522583 C4.0408936,49.21289 4.161133,48.921753 4.3797607,48.703247 C4.3797607,48.703247 28.114319,24.918335 28.114319,24.918335 C28.130005,24.934692 28.143616,24.952454 28.159973,24.968811 C28.159973,24.968811 29.69934,26.511475 29.69934,26.511475 C29.715454,26.527588 29.733337,26.541504 29.749878,26.557251 C29.749878,26.557251 6.01532,50.342163 6.01532,50.342163 ZM32.77826,25.065247 C32.32733,25.516968 31.593689,25.516968 31.14264,25.065247 C31.14264,25.065247 29.603333,23.522583 29.603333,23.522583 C29.152283,23.070618 29.152283,22.335388 29.603333,21.88324 C29.603333,21.88324 31.718994,19.76294 31.718994,19.76294 C31.718994,19.76294 34.894165,22.944946 34.894165,22.944946 C34.894165,22.944946 32.77826,25.065247 32.77826,25.065247 ZM31.445374,16.596313 C31.44043,16.591858 31.425537,16.576721 31.425537,16.548279 C31.425537,16.520203 31.44043,16.505066 31.445374,16.500244 C31.445374,16.500244 36.06372,11.871826 36.06372,11.871826 C36.077026,11.858704 36.094482,11.852051 36.11194,11.852051 C36.129272,11.852051 36.14673,11.858704 36.159973,11.871826 C36.159973,11.871826 42.768616,18.494446 42.768616,18.494446 C42.795166,18.521118 42.795166,18.564697 42.768616,18.591125 C42.768616,18.591125 38.15033,23.2193 38.15033,23.2193 C38.145386,23.223938 38.13031,23.238892 38.102173,23.238892 C38.073975,23.238892 38.05902,23.223938 38.053955,23.2193 C38.053955,23.2193 31.445374,16.596313 31.445374,16.596313 Z"/>
</svg>