<svg xmlns="http://www.w3.org/2000/svg"
 xmlns:xlink="http://www.w3.org/1999/xlink"
 width="60px" height="57px"  viewBox="0 0 60 57">
<path fill-rule="evenodd"  fill="#ffc222"
 d="M54.07556,27.513184 C54.07556,27.513184 54.07556,26.467285 54.07556,26.467285 C54.07556,26.467285 56.106873,26.467285 56.106873,26.467285 C56.6167,26.467285 57.03015,26.05426 57.03015,25.544434 C57.03015,25.544434 57.03015,22.529724 57.03015,22.529724 C57.03015,22.529724 58.0766,22.529724 58.0766,22.529724 C58.586548,22.529724 58.99994,22.1167 58.99994,21.606628 C58.99994,21.606628 58.99994,18.653625 58.99994,18.653625 C58.99994,18.32257 58.82245,18.016663 58.53473,17.852234 C58.53473,17.852234 30.958008,2.1017456 30.958008,2.1017456 C30.674194,1.9395142 30.325623,1.9395142 30.04181,2.1017456 C30.04181,2.1017456 2.46521,17.852234 2.46521,17.852234 C2.1774902,18.016663 1.9998779,18.322388 1.9998779,18.653625 C1.9998779,18.653625 1.9998779,21.606628 1.9998779,21.606628 C1.9998779,22.1167 2.41333,22.529724 2.9233398,22.529724 C2.9233398,22.529724 3.9697266,22.529724 3.9697266,22.529724 C3.9697266,22.529724 3.9697266,25.544434 3.9697266,25.544434 C3.9697266,26.05426 4.3831177,26.467285 4.8930664,26.467285 C4.8930664,26.467285 6.9242554,26.467285 6.9242554,26.467285 C6.9242554,26.467285 6.9242554,27.513184 6.9242554,27.513184 C6.9242554,28.230286 7.322632,28.85553 7.9093018,29.18097 C7.9093018,29.18097 7.9093018,46.278442 7.9093018,46.278442 C7.9093018,46.278442 4.8930664,46.278442 4.8930664,46.278442 C4.3831177,46.278442 3.9697266,46.69165 3.9697266,47.201538 C3.9697266,47.201538 3.9697266,50.216248 3.9697266,50.216248 C3.9697266,50.216248 2.9233398,50.216248 2.9233398,50.216248 C2.41333,50.216248 1.9998779,50.629272 1.9998779,51.138916 C1.9998779,51.138916 1.9998779,55.07666 1.9998779,55.07666 C1.9998779,55.586365 2.41333,55.999756 2.9233398,55.999756 C2.9233398,55.999756 58.0766,55.999756 58.0766,55.999756 C58.586548,55.999756 58.99994,55.586365 58.99994,55.07666 C58.99994,55.07666 58.99994,51.138916 58.99994,51.138916 C58.99994,50.629272 58.586548,50.216248 58.0766,50.216248 C58.0766,50.216248 57.03015,50.216248 57.03015,50.216248 C57.03015,50.216248 57.03015,47.201538 57.03015,47.201538 C57.03015,46.69165 56.6167,46.278442 56.106873,46.278442 C56.106873,46.278442 53.090637,46.278442 53.090637,46.278442 C53.090637,46.278442 53.090637,29.18097 53.090637,29.18097 C53.677307,28.85553 54.07556,28.230286 54.07556,27.513184 ZM52.228943,27.513184 C52.228943,27.54712 52.201233,27.574768 52.16736,27.574768 C52.16736,27.574768 48.227844,27.574768 48.227844,27.574768 C48.193848,27.574768 48.16626,27.54712 48.16626,27.513184 C48.16626,27.513184 48.16626,26.467285 48.16626,26.467285 C48.16626,26.467285 52.228943,26.467285 52.228943,26.467285 C52.228943,26.467285 52.228943,27.513184 52.228943,27.513184 ZM43.241882,46.278442 C43.241882,46.278442 43.241882,29.18097 43.241882,29.18097 C43.82849,28.85553 44.226624,28.230286 44.226624,27.513184 C44.226624,27.513184 44.226624,26.467285 44.226624,26.467285 C44.226624,26.467285 46.31952,26.467285 46.31952,26.467285 C46.31952,26.467285 46.31952,27.513184 46.31952,27.513184 C46.31952,28.230286 46.717896,28.85553 47.304504,29.18097 C47.304504,29.18097 47.304504,46.278442 47.304504,46.278442 C47.304504,46.278442 43.241882,46.278442 43.241882,46.278442 ZM39.302246,46.278442 C39.302246,46.278442 39.302246,29.420471 39.302246,29.420471 C39.302246,29.420471 41.39514,29.420471 41.39514,29.420471 C41.39514,29.420471 41.39514,46.278442 41.39514,46.278442 C41.39514,46.278442 39.302246,46.278442 39.302246,46.278442 ZM33.392944,46.278442 C33.392944,46.278442 33.392944,29.18097 33.392944,29.18097 C33.979614,28.85553 34.37787,28.230286 34.37787,27.513184 C34.37787,27.513184 34.37787,26.467285 34.37787,26.467285 C34.37787,26.467285 36.470764,26.467285 36.470764,26.467285 C36.470764,26.467285 36.470764,27.513184 36.470764,27.513184 C36.470764,28.230286 36.86902,28.85553 37.455627,29.18097 C37.455627,29.18097 37.455627,46.278442 37.455627,46.278442 C37.455627,46.278442 33.392944,46.278442 33.392944,46.278442 ZM29.453491,46.278442 C29.453491,46.278442 29.453491,29.420471 29.453491,29.420471 C29.453491,29.420471 31.546387,29.420471 31.546387,29.420471 C31.546387,29.420471 31.546387,46.278442 31.546387,46.278442 C31.546387,46.278442 29.453491,46.278442 29.453491,46.278442 ZM23.54419,46.278442 C23.54419,46.278442 23.54419,29.18097 23.54419,29.18097 C24.130798,28.85553 24.529053,28.230286 24.529053,27.513184 C24.529053,27.513184 24.529053,26.467285 24.529053,26.467285 C24.529053,26.467285 26.621948,26.467285 26.621948,26.467285 C26.621948,26.467285 26.621948,27.513184 26.621948,27.513184 C26.621948,28.230286 27.020203,28.85553 27.606812,29.18097 C27.606812,29.18097 27.606812,46.278442 27.606812,46.278442 C27.606812,46.278442 23.54419,46.278442 23.54419,46.278442 ZM19.604675,46.278442 C19.604675,46.278442 19.604675,29.420471 19.604675,29.420471 C19.604675,29.420471 21.69757,29.420471 21.69757,29.420471 C21.69757,29.420471 21.69757,46.278442 21.69757,46.278442 C21.69757,46.278442 19.604675,46.278442 19.604675,46.278442 ZM13.695435,46.278442 C13.695435,46.278442 13.695435,29.18097 13.695435,29.18097 C14.282043,28.85553 14.680298,28.230286 14.680298,27.513184 C14.680298,27.513184 14.680298,26.467285 14.680298,26.467285 C14.680298,26.467285 16.773193,26.467285 16.773193,26.467285 C16.773193,26.467285 16.773193,27.513184 16.773193,27.513184 C16.773193,28.230286 17.171448,28.85553 17.758057,29.18097 C17.758057,29.18097 17.758057,46.278442 17.758057,46.278442 C17.758057,46.278442 13.695435,46.278442 13.695435,46.278442 ZM22.682434,26.467285 C22.682434,26.467285 22.682434,27.513184 22.682434,27.513184 C22.682434,27.54712 22.654846,27.574768 22.62085,27.574768 C22.62085,27.574768 18.681396,27.574768 18.681396,27.574768 C18.6474,27.574768 18.619812,27.54712 18.619812,27.513184 C18.619812,27.513184 18.619812,26.467285 18.619812,26.467285 C18.619812,26.467285 22.682434,26.467285 22.682434,26.467285 ZM32.53125,26.467285 C32.53125,26.467285 32.53125,27.513184 32.53125,27.513184 C32.53125,27.54712 32.503662,27.574768 32.469666,27.574768 C32.469666,27.574768 28.530151,27.574768 28.530151,27.574768 C28.496155,27.574768 28.468567,27.54712 28.468567,27.513184 C28.468567,27.513184 28.468567,26.467285 28.468567,26.467285 C28.468567,26.467285 32.53125,26.467285 32.53125,26.467285 ZM42.380005,26.467285 C42.380005,26.467285 42.380005,27.513184 42.380005,27.513184 C42.380005,27.54712 42.352417,27.574768 42.318542,27.574768 C42.318542,27.574768 38.378906,27.574768 38.378906,27.574768 C38.345093,27.574768 38.317383,27.54712 38.317383,27.513184 C38.317383,27.513184 38.317383,26.467285 38.317383,26.467285 C38.317383,26.467285 42.380005,26.467285 42.380005,26.467285 ZM3.8466187,19.188904 C3.8466187,19.188904 30.499878,3.9661865 30.499878,3.9661865 C30.499878,3.9661865 57.15332,19.188904 57.15332,19.188904 C57.15332,19.188904 57.15332,20.68396 57.15332,20.68396 C57.15332,20.68396 3.8466187,20.68396 3.8466187,20.68396 C3.8466187,20.68396 3.8466187,19.188904 3.8466187,19.188904 ZM5.8164062,22.529724 C5.8164062,22.529724 55.183533,22.529724 55.183533,22.529724 C55.183533,22.529724 55.183533,24.621582 55.183533,24.621582 C55.183533,24.621582 5.8164062,24.621582 5.8164062,24.621582 C5.8164062,24.621582 5.8164062,22.529724 5.8164062,22.529724 ZM12.833679,26.467285 C12.833679,26.467285 12.833679,27.513184 12.833679,27.513184 C12.833679,27.54712 12.806091,27.574768 12.772095,27.574768 C12.772095,27.574768 8.832581,27.574768 8.832581,27.574768 C8.798584,27.574768 8.770996,27.54712 8.770996,27.513184 C8.770996,27.513184 8.770996,26.467285 8.770996,26.467285 C8.770996,26.467285 12.833679,26.467285 12.833679,26.467285 ZM9.755859,29.420471 C9.755859,29.420471 11.848755,29.420471 11.848755,29.420471 C11.848755,29.420471 11.848755,46.278442 11.848755,46.278442 C11.848755,46.278442 9.755859,46.278442 9.755859,46.278442 C9.755859,46.278442 9.755859,29.420471 9.755859,29.420471 ZM57.15332,54.154053 C57.15332,54.154053 3.8466187,54.154053 3.8466187,54.154053 C3.8466187,54.154053 3.8466187,52.061768 3.8466187,52.061768 C3.8466187,52.061768 57.15332,52.061768 57.15332,52.061768 C57.15332,52.061768 57.15332,54.154053 57.15332,54.154053 ZM55.183533,50.216248 C55.183533,50.216248 5.8164062,50.216248 5.8164062,50.216248 C5.8164062,50.216248 5.8164062,48.12439 5.8164062,48.12439 C5.8164062,48.12439 55.183533,48.12439 55.183533,48.12439 C55.183533,48.12439 55.183533,50.216248 55.183533,50.216248 ZM49.151123,46.278442 C49.151123,46.278442 49.151123,29.420471 49.151123,29.420471 C49.151123,29.420471 51.243896,29.420471 51.243896,29.420471 C51.243896,29.420471 51.243896,46.278442 51.243896,46.278442 C51.243896,46.278442 49.151123,46.278442 49.151123,46.278442 Z"/>
</svg>