<svg xmlns="http://www.w3.org/2000/svg"
 xmlns:xlink="http://www.w3.org/1999/xlink"
 width="50px" height="47px"  viewBox="0 0 50 47">
<path fill-rule="evenodd"  fill="#ffc222"
 d="M44.990234,10.320984 C44.990234,10.320984 33.57019,10.320984 33.57019,10.320984 C33.57019,10.320984 33.57019,7.9301147 33.57019,7.9301147 C34.246338,7.6950684 34.80249,7.155945 35.053345,6.4433594 C35.498657,5.175049 34.854492,3.7720337 33.617188,3.3152466 C31.286133,2.4545288 28.479248,1.9997559 25.499878,1.9997559 C22.520508,1.9997559 19.713745,2.4545288 17.382568,3.3152466 C16.145264,3.7720337 15.500977,5.175049 15.946533,6.4435425 C16.202759,7.171936 16.764038,7.699341 17.429688,7.9301147 C17.429688,7.9301147 17.429688,10.320984 17.429688,10.320984 C17.429688,10.320984 6.0095215,10.320984 6.0095215,10.320984 C3.798706,10.320984 1.9998779,12.16449 1.9998779,14.429871 C1.9998779,14.429871 1.9998779,41.89087 1.9998779,41.89087 C1.9998779,44.156433 3.798706,45.99951 6.0095215,45.99951 C6.0095215,45.99951 44.990234,45.99951 44.990234,45.99951 C47.20105,45.99951 48.999878,44.156433 48.999878,41.89087 C48.999878,41.89087 48.999878,14.429871 48.999878,14.429871 C48.999878,12.16449 47.20105,10.320984 44.990234,10.320984 ZM17.898804,4.783264 C20.066162,3.9828491 22.694458,3.5599976 25.499878,3.5599976 C28.305298,3.5599976 30.933594,3.9828491 33.101196,4.783264 C33.548706,4.9484863 33.78186,5.4561157 33.620728,5.9143066 C33.49756,6.2645874 33.171265,6.499634 32.808716,6.499634 C32.70935,6.499634 32.61084,6.4818726 32.51648,6.4472046 C30.562744,5.725464 28.071045,5.328186 25.499878,5.328186 C22.92871,5.328186 20.437012,5.725464 18.483398,6.4472046 C18.035645,6.6119995 17.540405,6.373535 17.37915,5.914734 C17.218018,5.4561157 17.45105,4.9484863 17.898804,4.783264 ZM18.952393,7.9311523 C18.96814,7.925476 18.983887,7.9206543 18.999634,7.914978 C20.79187,7.2529907 23.100342,6.8884277 25.499878,6.8884277 C27.899414,6.8884277 30.208008,7.2529907 32.000366,7.914978 C32.01587,7.9208374 32.03174,7.9246826 32.047363,7.9301147 C32.047363,7.9301147 32.047363,10.320984 32.047363,10.320984 C32.047363,10.320984 18.952393,10.320984 18.952393,10.320984 C18.952393,10.320984 18.952393,7.9311523 18.952393,7.9311523 ZM3.522583,14.429871 C3.522583,13.024841 4.6383057,11.881653 6.0095215,11.881653 C6.0095215,11.881653 44.990234,11.881653 44.990234,11.881653 C46.36145,11.881653 47.477173,13.024841 47.477173,14.429871 C47.477173,14.429871 47.477173,21.919067 47.477173,21.919067 C47.477173,26.995178 43.44702,31.125061 38.49341,31.125061 C38.49341,31.125061 28.69751,31.125061 28.69751,31.125061 C28.69751,31.125061 28.69751,30.240723 28.69751,30.240723 C28.69751,28.892761 27.627441,27.796387 26.312012,27.796387 C26.312012,27.796387 24.687744,27.796387 24.687744,27.796387 C23.372437,27.796387 22.302246,28.892761 22.302246,30.240723 C22.302246,30.240723 22.302246,31.125061 22.302246,31.125061 C22.302246,31.125061 12.506348,31.125061 12.506348,31.125061 C7.5527344,31.125061 3.522583,26.995178 3.522583,21.919067 C3.522583,21.919067 3.522583,14.429871 3.522583,14.429871 ZM27.174805,31.90509 C27.174805,32.3927 26.787842,32.789 26.312012,32.789 C26.312012,32.789 24.687744,32.789 24.687744,32.789 C24.211914,32.789 23.824951,32.3927 23.824951,31.90509 C23.824951,31.90509 23.824951,30.240723 23.824951,30.240723 C23.824951,29.753296 24.211914,29.356628 24.687744,29.356628 C24.687744,29.356628 26.312012,29.356628 26.312012,29.356628 C26.787842,29.356628 27.174805,29.753296 27.174805,30.240723 C27.174805,30.240723 27.174805,31.90509 27.174805,31.90509 ZM23.824951,34.183594 C24.092773,34.2901 24.383667,34.349426 24.687744,34.349426 C24.687744,34.349426 26.312012,34.349426 26.312012,34.349426 C26.61621,34.349426 26.906982,34.2901 27.174805,34.183594 C27.174805,34.183594 27.174805,35.23352 27.174805,35.23352 C27.174805,35.72119 26.787842,36.117676 26.312012,36.117676 C26.312012,36.117676 24.687744,36.117676 24.687744,36.117676 C24.211914,36.117676 23.824951,35.72119 23.824951,35.23352 C23.824951,35.23352 23.824951,34.183594 23.824951,34.183594 ZM47.477173,41.89087 C47.477173,43.296143 46.36145,44.43933 44.990234,44.43933 C44.990234,44.43933 6.0095215,44.43933 6.0095215,44.43933 C4.6383057,44.43933 3.522583,43.296143 3.522583,41.89087 C3.522583,41.89087 3.522583,27.496582 3.522583,27.496582 C5.3671875,30.604736 8.704224,32.68506 12.506348,32.68506 C12.506348,32.68506 22.302246,32.68506 22.302246,32.68506 C22.302246,32.68506 22.302246,35.23352 22.302246,35.23352 C22.302246,36.5813 23.372437,37.678284 24.687744,37.678284 C24.687744,37.678284 26.312012,37.678284 26.312012,37.678284 C27.627441,37.678284 28.69751,36.5813 28.69751,35.23352 C28.69751,35.23352 28.69751,32.68506 28.69751,32.68506 C28.69751,32.68506 38.49341,32.68506 38.49341,32.68506 C42.295654,32.68506 45.63269,30.604736 47.477173,27.496582 C47.477173,27.496582 47.477173,41.89087 47.477173,41.89087 Z"/>
</svg>