<svg xmlns="http://www.w3.org/2000/svg" width="60" height="57"><path fill-rule="evenodd" fill="#ffc222" d="M54.076 27.513v-1.046h2.03c.51 0 .924-.413.924-.923V22.53h1.047c.51 0 .923-.413.923-.923v-2.953a.923.923 0 00-.465-.802L30.958 2.102a.923.923 0 00-.916 0L2.465 17.852a.923.923 0 00-.465.802v2.953c0 .51.413.923.923.923H3.97v3.014c0 .51.413.923.923.923h2.031v1.046c0 .717.399 1.343.985 1.668v17.097H4.893a.923.923 0 00-.923.924v3.014H2.923A.923.923 0 002 51.14v3.938c0 .51.413.923.923.923h55.154c.51 0 .923-.414.923-.923V51.14a.923.923 0 00-.923-.923H57.03v-3.014a.923.923 0 00-.923-.924H53.09V29.181c.586-.325.985-.95.985-1.668zm-1.847 0a.062.062 0 01-.062.062h-3.94a.062.062 0 01-.06-.062v-1.046h4.062v1.046zm-8.987 18.765V29.181c.586-.325.985-.95.985-1.668v-1.046h2.093v1.046c0 .717.398 1.343.985 1.668v17.097h-4.063zm-3.94 0V29.42h2.093v16.858h-2.093zm-5.91 0V29.181c.588-.325.986-.95.986-1.668v-1.046h2.093v1.046c0 .717.398 1.343.985 1.668v17.097h-4.063zm-3.939 0V29.42h2.093v16.858h-2.093zm-5.909 0V29.181c.587-.325.985-.95.985-1.668v-1.046h2.093v1.046c0 .717.398 1.343.985 1.668v17.097h-4.063zm-3.94 0V29.42h2.094v16.858h-2.093zm-5.909 0V29.181c.587-.325.985-.95.985-1.668v-1.046h2.093v1.046c0 .717.398 1.343.985 1.668v17.097h-4.063zm8.987-19.81v1.045a.062.062 0 01-.061.062h-3.94a.062.062 0 01-.061-.062v-1.046h4.062zm9.85 0v1.045a.062.062 0 01-.062.062h-3.94a.062.062 0 01-.061-.062v-1.046h4.062zm9.848 0v1.045a.062.062 0 01-.061.062h-3.94a.062.062 0 01-.062-.062v-1.046h4.063zm-38.533-7.28L30.5 3.967 57.153 19.19v1.495H3.847V19.19zm1.97 3.342h49.367v2.092H5.816V22.53zm7.017 3.937v1.046a.062.062 0 01-.062.062h-3.94a.062.062 0 01-.061-.062v-1.046h4.063zM9.756 29.42h2.093v16.858H9.756V29.42zm47.397 24.734H3.847v-2.092h53.306v2.092zm-1.97-3.938H5.817v-2.092h49.368v2.092zm-6.032-3.938V29.42h2.093v16.858H49.15z"/></svg>