<svg xmlns="http://www.w3.org/2000/svg" width="50" height="47"><path fill-rule="evenodd" fill="#ffc222" d="M44.99 10.321H33.57v-2.39a2.422 2.422 0 001.483-1.488c.446-1.268-.199-2.671-1.436-3.128C31.287 2.455 28.48 2 25.5 2c-2.98 0-5.786.455-8.117 1.315-1.238.457-1.882 1.86-1.436 3.129A2.411 2.411 0 0017.43 7.93v2.391H6.01C3.799 10.321 2 12.164 2 14.43v27.46C2 44.157 3.799 46 6.01 46h38.98c2.211 0 4.01-1.844 4.01-4.11V14.43c0-2.266-1.799-4.109-4.01-4.109zM17.9 4.783c2.167-.8 4.795-1.223 7.6-1.223 2.806 0 5.435.423 7.602 1.223.448.165.68.673.52 1.131a.867.867 0 01-.812.586.846.846 0 01-.293-.053c-1.953-.722-4.445-1.119-7.016-1.119-2.571 0-5.063.397-7.017 1.12a.859.859 0 01-1.104-.533.891.891 0 01.52-1.132zm1.053 3.148L19 7.915c1.792-.662 4.1-1.027 6.5-1.027 2.4 0 4.708.365 6.5 1.027l.047.015v2.391H18.952v-2.39zM3.522 14.43c0-1.405 1.116-2.548 2.488-2.548h38.98c1.371 0 2.487 1.143 2.487 2.548v7.49c0 5.075-4.03 9.205-8.984 9.205h-9.795v-.884c0-1.348-1.07-2.445-2.386-2.445h-1.624c-1.316 0-2.386 1.097-2.386 2.445v.884h-9.796c-4.953 0-8.983-4.13-8.983-9.206v-7.49zm23.653 17.475a.874.874 0 01-.863.884h-1.624a.874.874 0 01-.863-.884v-1.664c0-.488.387-.884.863-.884h1.624c.476 0 .863.396.863.884v1.664zm-3.35 2.279c.268.106.559.165.863.165h1.624c.304 0 .595-.059.863-.165v1.05a.875.875 0 01-.863.884h-1.624a.875.875 0 01-.863-.884v-1.05zm23.652 7.707c0 1.405-1.116 2.548-2.487 2.548H6.01c-1.372 0-2.487-1.143-2.487-2.548V27.497c1.844 3.108 5.181 5.188 8.983 5.188h9.796v2.549c0 1.347 1.07 2.444 2.386 2.444h1.624c1.315 0 2.386-1.097 2.386-2.444v-2.549h9.795c3.803 0 7.14-2.08 8.984-5.188V41.89z"/></svg>